<?xml version="1.0" encoding="UTF-8"?>
<svg version="1.1" xmlns="http://www.w3.org/2000/svg" width="1251" height="980" viewBox="0 0 1251 980" fill="none">
<path d="M0 0 C0.8353125 0.52787109 0.8353125 0.52787109 1.6875 1.06640625 C5.37882127 3.79217358 7.70585427 6.98831869 10.10403442 10.8817749 C16.18584623 20.67479262 23.83330827 28.32199678 32.125 36.25 C40.55382586 44.3562995 48.58741262 52.13795766 55 62 C55.6192334 62.9369873 56.2384668 63.87397461 56.87646484 64.83935547 C58.81851942 67.81466042 60.72599553 70.80955618 62.625 73.8125 C63.66140625 75.44155273 63.66140625 75.44155273 64.71875 77.10351562 C66.81555479 80.40041473 68.90788528 83.70012342 71 87 C72.76645373 89.77820113 74.53425811 92.55553874 76.30224609 95.33276367 C77.43845245 97.11778732 78.57419115 98.90310871 79.70947266 100.6887207 C84.12615285 107.63447758 88.56062693 114.56872974 93 121.5 C100.92856742 133.87994334 108.82240414 146.2817592 116.70898438 158.68847656 C118.43068853 161.39667597 120.15271785 164.10466813 121.875 166.8125 C122.44605469 167.71033203 123.01710938 168.60816406 123.60546875 169.53320312 C128.09864636 176.59319601 132.61033365 183.64123502 137.125 190.6875 C142.30043654 198.76626028 147.45176557 206.85931795 152.56738281 214.97607422 C156.32146381 220.93121618 160.0942291 226.87426933 163.875 232.8125 C164.45894531 233.72966797 165.04289063 234.64683594 165.64453125 235.59179688 C167.42943861 238.39468986 169.21465839 241.19738359 171 244 C178.17310101 255.26028234 185.33919004 266.5245995 192.46142578 277.81713867 C196.29230702 283.88787522 200.14340259 289.94557374 204 296 C209.86637613 305.21045128 215.70673033 314.43699028 221.53222656 323.67333984 C224.01983357 327.61660245 226.51006414 331.55820768 229 335.5 C230.00001224 337.0833256 231.00001225 338.66665893 232 340.25 C232.495 341.03375 232.99 341.8175 233.5 342.625 C238 349.75 238 349.75 239.49951172 352.12426758 C240.50109035 353.71007325 241.50271808 355.29584791 242.50439453 356.8815918 C244.98064184 360.80184757 247.45607701 364.72261107 249.9296875 368.64453125 C254.05542967 375.18410362 258.18260104 381.72257513 262.33984375 388.2421875 C262.90896484 389.13486328 263.47808594 390.02753906 264.06445312 390.94726562 C265.23019447 392.77467915 266.39686203 394.60150215 267.56445312 396.42773438 C270.73430371 401.39697209 273.86259667 406.38783591 276.94140625 411.4140625 C277.92693481 413.01568237 277.92693481 413.01568237 278.93237305 414.6496582 C280.18744637 416.69307594 281.43551829 418.74081804 282.67504883 420.79370117 C289.56969087 432.5089281 289.56969087 432.5089281 300.4375 439.875 C305.72536314 441.10152432 311.11343651 441.90615446 316.46508789 442.81274414 C333.61600979 445.77553706 349.20871306 451.32880872 360.0390625 465.70703125 C361.82056913 468.41719559 363.444339 471.15488737 365 474 C365.39960937 474.71671875 365.79921875 475.4334375 366.2109375 476.171875 C372.63038121 489.01076242 372.98516979 503.25986862 370.31030273 517.04931641 C370.12925208 518.01781304 369.94820143 518.98630968 369.76166439 519.9841547 C369.16006038 523.19147219 368.54687052 526.39645826 367.93359375 529.6015625 C367.50317281 531.88323441 367.0734707 534.16504203 366.6444397 536.44697571 C365.49110454 542.57013791 364.32772507 548.69135194 363.16237259 554.81223679 C361.94745481 561.20259266 360.74169196 567.59467557 359.53491211 573.98657227 C357.36445159 585.47535415 355.1861056 596.96262266 353.00370312 608.4491415 C351.07805956 618.58519954 349.15938633 628.7225649 347.24287796 638.86035347 C340.81236561 672.87022712 334.31236704 706.86677022 327.78101349 740.85740948 C324.62209598 757.29765043 321.4747441 773.74001167 318.34935188 790.18666267 C317.81250155 793.01171059 317.27546382 795.83672283 316.73838806 798.66172791 C314.64936214 809.65046231 314.64936214 809.65046231 312.56448364 820.63998413 C310.54485834 831.29627573 308.51367436 841.95024957 306.46183014 852.60038757 C305.99207587 855.04117281 305.52416404 857.48230693 305.05633545 859.92346191 C304.28626579 863.93565266 303.50684548 867.94593231 302.72086906 871.95503616 C302.43119049 873.43863243 302.14413327 874.92274361 301.86004829 876.40742111 C298.17713589 895.62337565 292.61403368 914.34364178 276.4375 926.6875 C268.3475418 932.08492249 258.72764249 935.51361788 249 936 C247.99259766 936.07541016 247.99259766 936.07541016 246.96484375 936.15234375 C241.41082226 936.39050934 236.04837768 935.63744173 230.57861328 934.75341797 C229.3354494 934.5543324 229.3354494 934.5543324 228.0671711 934.3512249 C217.69345225 932.66126678 207.37627576 930.67453355 197.0546875 928.6953125 C194.78941105 928.26333504 192.52407922 927.83164791 190.25869751 927.40022278 C185.37128253 926.4689115 180.48421366 925.53581249 175.59741211 924.60128784 C167.71460165 923.09390057 159.83102737 921.59053637 151.94726562 920.08813477 C151.27015581 919.95909354 150.59304599 919.83005232 149.89541769 919.69710076 C147.11327454 919.16689144 144.33113018 918.63668847 141.54897761 918.10652858 C137.24190555 917.28576555 132.93489509 916.46468008 128.62792754 915.64336878 C106.43917183 911.41225135 84.24707404 907.19893656 62.05303049 902.99564838 C59.53468549 902.51870229 57.01634817 902.04171571 54.49801254 901.56472015 C39.66550028 898.75535674 24.8328472 895.94673735 9.99993896 893.13946533 C0.78103973 891.39465316 -8.43770191 889.64901024 -17.65625 887.90234375 C-18.77993398 887.68944498 -18.77993398 887.68944498 -19.92631865 887.47224522 C-45.55298217 882.616431 -71.17086066 877.71557055 -96.78543091 872.79640007 C-120.82297303 868.18009433 -144.8666406 863.59746226 -168.91818237 859.05459595 C-178.95779065 857.15814841 -188.99650633 855.25698173 -199.03515625 853.35546875 C-200.03426088 853.16622519 -201.03336552 852.97698162 -202.06274605 852.7820034 C-220.35889641 849.31587695 -238.65008629 845.82440685 -256.9375 842.3125 C-258.35520425 842.04029329 -259.77290851 841.76808667 -261.19061279 841.49588013 C-268.85067997 840.02497265 -276.51056751 838.55313088 -284.17041016 837.08105469 C-306.98787592 832.69606129 -329.80602341 828.31462465 -352.625 823.9375 C-354.53916529 823.57030413 -354.53916529 823.57030413 -356.49200058 823.19569016 C-393.21564194 816.1515599 -429.94750256 809.15225676 -466.69039917 802.20925903 C-472.52738515 801.10624951 -478.36414856 800.00206787 -484.20081997 798.89739513 C-489.8148012 797.83488113 -495.42886593 796.77280885 -501.04296875 795.7109375 C-502.12157984 795.50692133 -503.20019093 795.30290516 -504.3114872 795.09270668 C-517.02528552 792.68855951 -529.74139494 790.29741294 -542.46139526 787.92630005 C-548.1312842 786.8690685 -553.79980684 785.80460981 -559.46784019 784.73747826 C-563.0596698 784.06172077 -566.65211553 783.38988096 -570.2467041 782.72894287 C-615.97220178 774.31628538 -615.97220178 774.31628538 -630.0078125 754.109375 C-641.42331215 735.48157223 -639.57204653 717.18631705 -635.625 696.67578125 C-635.22934194 694.57571237 -634.83461146 692.47546858 -634.44067383 690.37507629 C-633.5167319 685.46341363 -632.58504931 680.55327065 -631.64794922 675.644104 C-630.4696443 669.47093654 -629.29743098 663.29663964 -628.12939453 657.121521 C-627.88464336 655.82760467 -627.88464336 655.82760467 -627.63494772 654.50754863 C-627.29611646 652.7161752 -626.95729229 650.92480044 -626.61847484 649.1334244 C-621.97432226 624.58437826 -617.30286071 600.0405341 -612.63006735 575.49692678 C-609.22658198 557.6201305 -605.82388014 539.74318517 -602.42260623 521.86596799 C-601.78530592 518.51641164 -601.14791076 515.16687335 -600.51051521 511.81733513 C-595.31510491 484.51265618 -590.14610833 457.20325723 -585.02769089 429.88403893 C-584.1372124 425.13174865 -583.24505467 420.37977476 -582.35244751 415.62788391 C-582.0659553 414.10250214 -581.77946453 412.5771201 -581.49297523 411.05173779 C-581.07405034 408.82125164 -580.65510521 406.59076932 -580.23607707 404.36030257 C-578.65393511 395.93776817 -577.07821579 387.51409379 -575.51363128 379.0882796 C-574.44443446 373.33328661 -573.36472984 367.58029766 -572.2811451 361.8279953 C-571.85097175 359.53430594 -571.42441479 357.23993446 -571.00201225 354.94480133 C-567.02575686 333.35194264 -562.67236697 311.28374709 -544.3984375 296.9609375 C-524.67486032 283.60347169 -503.05779975 286.33293304 -480.87841797 290.41796875 C-477.05228865 291.19163222 -473.31093611 292.1663289 -469.5625 293.25 C-456.67286354 296.89555375 -447.64488622 294.26267845 -436.0625 287.875 C-430.61658259 284.58358857 -425.85952496 280.73345291 -421.04296875 276.58984375 C-417.54411557 273.6120008 -413.93038324 270.81721794 -410.27758789 268.03198242 C-409.4556897 267.4051355 -409.4556897 267.4051355 -408.6171875 266.765625 C-407.75625488 266.10916992 -407.75625488 266.10916992 -406.87792969 265.43945312 C-403.23552441 262.64751065 -399.61985276 259.82107747 -396 257 C-390.84460227 252.98512002 -385.68315595 248.97898841 -380.5 245 C-372.30301626 238.70570383 -364.15396006 232.34986678 -356 226 C-345.68909399 217.9704194 -335.36732918 209.95662875 -325 202 C-322.83289153 200.33390747 -320.66642661 198.66697902 -318.5 197 C-315.30981395 194.54527885 -312.11903483 192.09135583 -308.92578125 189.640625 C-301.81329582 184.1790929 -294.72893394 178.68237869 -287.65356445 173.17285156 C-282.25338365 168.96960334 -276.834403 164.79206695 -271.40625 160.625 C-267.25758589 157.43371992 -263.12972158 154.21572808 -259 151 C-250.38130371 144.29038935 -241.7377805 137.61441259 -233.0546875 130.98828125 C-231.64057642 129.90891781 -230.22651507 128.82948921 -228.8125 127.75 C-228.09900391 127.20537109 -227.38550781 126.66074219 -226.65039062 126.09960938 C-221.38821746 122.07669912 -216.15844439 118.01371231 -210.9375 113.9375 C-204.60192073 108.99224167 -198.2079405 104.13540303 -191.76416016 99.33227539 C-186.22148062 95.19083507 -180.78024518 90.92975463 -175.3515625 86.640625 C-168.59499932 81.30547137 -161.74370435 76.09160237 -154.8984375 70.87109375 C-148.23400273 65.78672983 -141.57925179 60.6943464 -135 55.5 C-127.70957351 49.74595518 -120.33645982 44.10340185 -112.94091797 38.48535156 C-111.22058811 37.16881233 -109.5154847 35.83594951 -107.81640625 34.4921875 C-92.41868729 22.4999342 -75.35830247 14.39114388 -56.33984375 10.0546875 C-52.65505982 8.89107152 -50.10929382 7.273001 -47 5 C-32.72121587 -5.12679726 -15.92030605 -10.55431004 0 0 Z M-31.875 22.6875 C-34.37844308 26.58992597 -35.29438106 29.38803014 -35 34 C-33.78589107 38.28509034 -32.6516934 40.4240849 -29.3125 43.375 C-24.88897512 45.54503108 -20.92169235 46.76243366 -16.0390625 45.48828125 C-12.75624904 44.17931133 -10.26341846 42.69059884 -8 40 C-5.61636338 34.45303254 -5.67452399 29.51863051 -7.890625 23.94921875 C-9.69604379 20.77702164 -11.72526891 19.51141435 -15 18 C-22.05272025 16.07653084 -26.59488945 17.75174448 -31.875 22.6875 Z M-105 78 C-107.955703 80.31588175 -110.91404362 82.62833877 -113.875 84.9375 C-114.60984619 85.51064941 -115.34469238 86.08379883 -116.10180664 86.67431641 C-122.58120764 91.70987298 -129.15294193 96.61746962 -135.73193359 101.52172852 C-141.52712341 105.85651238 -147.20857079 110.30999673 -152.83618164 114.859375 C-157.49070096 118.61616866 -162.24133471 122.22548964 -167.04296875 125.79296875 C-171.86407908 129.39128755 -176.61891135 133.07550082 -181.38085938 136.75146484 C-183.97965631 138.75542256 -186.58427682 140.75179728 -189.1875 142.75 C-195.26047758 147.41670225 -201.30353895 152.12159874 -207.34643555 156.82714844 C-212.75031682 161.03327693 -218.17259289 165.21419077 -223.60546875 169.3828125 C-226.15810607 171.34614388 -228.69986016 173.32301207 -231.23828125 175.3046875 C-239.18043164 181.50467219 -247.15647355 187.64546183 -255.23486328 193.66699219 C-260.18974895 197.36924517 -265.06795342 201.15977162 -269.9206543 204.99462891 C-275.37213131 209.30264055 -280.87659632 213.53926705 -286.39111328 217.76611328 C-289.09649812 219.84092587 -291.79804166 221.92072853 -294.5 224 C-295.58331518 224.83335693 -296.66664851 225.66669027 -297.75 226.5 C-298.554375 227.11875 -298.554375 227.11875 -299.375 227.75 C-330.25 251.5 -330.25 251.5 -331.8737793 252.74902344 C-332.96123001 253.5855491 -334.04863207 254.42213803 -335.13598633 255.25878906 C-337.78093787 257.29379288 -340.42681112 259.32756533 -343.07421875 261.359375 C-350.18379886 266.81867616 -357.26553574 272.31280418 -364.33764648 277.82055664 C-368.79672067 281.29166676 -373.26587277 284.74883331 -377.75 288.1875 C-382.38935174 291.75259981 -387.01549905 295.33387077 -391.625 298.9375 C-392.21764648 299.39858154 -392.81029297 299.85966309 -393.42089844 300.3347168 C-396.10096436 302.43586668 -398.62446368 304.56245876 -401 307 C-362.67527646 314.41284379 -324.34095665 321.77405161 -285.99733734 329.0885582 C-282.50547071 329.75468794 -279.0136458 330.4210361 -275.52183378 331.08745199 C-232.65958276 339.26774385 -189.78908321 347.40347467 -146.91146851 355.50289917 C-117.53861322 361.05145625 -88.17230572 366.63177558 -58.8180542 372.27792358 C-35.77863589 376.70942054 -12.7294031 381.08697143 10.32516861 385.43891525 C34.05791363 389.91909083 57.78220813 394.44134289 81.5 399 C116.89643604 405.80274622 152.31036673 412.51136595 187.72961426 419.19421387 C191.94837318 419.99021576 196.16706601 420.78656754 200.38574219 421.58300781 C215.25682497 424.39045695 230.12818901 427.19641081 245 430 C243.90100649 426.46261465 242.81007625 423.34191832 240.75 420.2578125 C240.31196045 419.59305908 239.8739209 418.92830566 239.42260742 418.2434082 C238.95314697 417.5443335 238.48368652 416.84525879 238 416.125 C236.99500916 414.60097508 235.99112593 413.07621925 234.98828125 411.55078125 C234.231521 410.40343506 234.231521 410.40343506 233.45947266 409.23291016 C231.31834592 405.95710802 229.24940173 402.63853369 227.1875 399.3125 C221.4696054 390.11694787 215.64439961 380.99026617 209.82324219 371.85986328 C202.03839179 359.64886469 194.2638995 347.4316188 186.53857422 335.18286133 C182.70769308 329.11212494 178.85663068 323.05440494 175 317 C170.1622837 309.40541918 165.34256929 301.79984917 160.5390625 294.18359375 C156.70797641 288.11263987 152.85678831 282.05465239 149 276 C144.65274698 269.17538227 140.31657141 262.34406603 136 255.5 C129.95425985 245.91565853 123.87020038 236.35589349 117.78222656 226.79833984 C114.27135308 221.28578753 110.76338497 215.77138595 107.25488281 210.25732422 C104.31412095 205.63577476 101.37263668 201.01468822 98.4296875 196.39453125 C92.44643027 186.99976771 86.47672124 177.5968409 80.53417969 168.17626953 C74.97501424 159.3678361 69.37816293 150.58344039 63.78222656 141.79833984 C61.43561104 138.11383201 59.09039212 134.42843651 56.74536133 130.74291992 C55.5813046 128.91354835 54.41707919 127.0842841 53.25268555 125.25512695 C50.32040526 120.64854451 47.39042566 116.04052733 44.46484375 111.4296875 C41.55925709 106.85172255 38.64724694 102.27791538 35.72900391 97.70800781 C34.568543 95.89046583 33.40937984 94.07209467 32.25146484 92.25292969 C23.58348083 77.90517184 23.58348083 77.90517184 13 65 C12.34 65 11.68 65 11 65 C10.7525 64.38125 10.505 63.7625 10.25 63.125 C8.69077963 60.47432536 7.96779662 59.83117863 5 59 C2.43767661 59.96646424 0.21403326 60.97861764 -2.1875 62.25 C-7.7159179 64.99559027 -12.78909925 67.34307781 -19 68 C-20.06734375 68.12181641 -20.06734375 68.12181641 -21.15625 68.24609375 C-28.66203968 68.68216956 -35.57332205 66.16029697 -41.875 62.1875 C-43.67446572 60.33510882 -44.99634918 58.61880794 -46.4375 56.5 C-48.84890165 53.01769638 -51.12941438 50.89734589 -55 49 C-72.40161392 46.38975791 -92.30581402 68.0344457 -105 78 Z M-514.79296875 346.84375 C-522.14696353 356.57644433 -523.65214519 370.38780683 -525.84301758 382.08129883 C-526.10177365 383.43639422 -526.36109655 384.79138147 -526.62092972 386.14627075 C-527.32239268 389.81263281 -528.01596581 393.48044692 -528.70809484 397.14858079 C-529.45316733 401.08950525 -530.20573485 405.028999 -530.9573822 408.96867371 C-532.24599628 415.72824395 -533.52997986 422.48867982 -534.81066895 429.24975586 C-536.6549342 438.98608352 -538.50629825 448.72105077 -540.35940909 458.45569825 C-543.26927698 473.74251058 -546.17388621 489.03031616 -549.07470703 504.31884766 C-552.36127127 521.6402669 -555.65470006 538.96037051 -558.95226097 556.27969933 C-562.1252361 572.94488779 -565.29657754 589.61038775 -568.46411133 606.27661133 C-568.68112544 607.41813251 -568.89813955 608.55965368 -569.12172985 609.73576641 C-570.17740146 615.2907421 -571.23089376 620.84611495 -572.27970886 626.40238953 C-574.20152027 636.57660855 -576.13952276 646.74685887 -578.13409042 656.90710449 C-579.08357462 661.75152343 -580.02252087 666.59795705 -580.9603653 671.44464111 C-581.40645767 673.73514532 -581.85745529 676.02470083 -582.31386566 678.31317139 C-587.52203039 699.98395733 -587.52203039 699.98395733 -583.3203125 721.140625 C-576.94884655 730.1134587 -566.75964201 733.20817395 -556.390625 735.12109375 C-555.46106491 735.30166824 -554.53150482 735.48224274 -553.57377625 735.66828918 C-550.46778999 736.26866244 -547.359033 736.853126 -544.25 737.4375 C-541.99666561 737.86928011 -539.7434963 738.30192244 -537.49047852 738.73535156 C-531.30525002 739.92157734 -525.11724274 741.09262672 -518.92828369 742.25921631 C-514.96662557 743.00629365 -511.00545577 743.75590832 -507.04443359 744.50634766 C-492.01292854 747.35323878 -476.97832672 750.18347955 -461.94216537 753.00566483 C-444.37559174 756.30295519 -426.81204979 759.61620345 -409.25 762.9375 C-408.47325802 763.08437885 -407.69651604 763.23125771 -406.89623642 763.38258743 C-383.8074814 767.74895687 -360.72642344 772.15408563 -337.65113831 776.5910759 C-313.56982955 781.22132027 -289.48166167 785.81520738 -265.390625 790.39453125 C-264.6395837 790.53729303 -263.8885424 790.68005482 -263.11474228 790.82714272 C-251.40993582 793.05199492 -239.7049784 795.2760526 -228 797.5 C-215.53638219 799.86808899 -203.0727985 802.23635726 -190.609375 804.60546875 C-189.48384027 804.81941504 -189.48384027 804.81941504 -188.33556747 805.03768349 C-162.90666855 809.87150547 -137.48229275 814.72839969 -112.06399536 819.61767578 C-96.63437975 822.58549044 -81.20171338 825.5358688 -65.76171875 828.44921875 C-64.98859219 828.59510752 -64.21546562 828.74099628 -63.41891098 828.89130592 C-59.49484569 829.63169867 -55.57073506 830.37185088 -51.64660645 831.11190796 C-50.86830978 831.25868862 -50.09001312 831.40546928 -49.28813171 831.55669785 C-47.72658037 831.8511885 -46.16502643 832.14566543 -44.60346985 832.44012833 C-21.05339783 836.88155131 2.47905273 841.40693805 26 846 C52.33023196 851.14122226 78.67521786 856.19762507 105.04133987 861.15168953 C108.8714257 861.87134457 112.70137246 862.59173739 116.53125 863.3125 C117.29961937 863.45706509 118.06798874 863.60163017 118.85964203 863.75057602 C131.2230256 866.07862347 143.57477347 868.46390259 155.92331696 870.86931992 C161.7046111 871.99409016 167.48722534 873.11205896 173.26981735 874.23013496 C178.845877 875.30918983 184.41958948 876.39946443 189.99182129 877.4981041 C193.46176562 878.1793742 196.93376638 878.84967245 200.40638733 879.51715088 C202.01023103 879.82774538 203.61321748 880.14280854 205.2151947 880.46289062 C224.64110427 884.61089016 224.64110427 884.61089016 243 879 C255.47195409 869.83532526 256.42673952 853.01369524 259.05802917 838.84290314 C259.71917887 835.30534419 260.40164864 831.77188219 261.08105469 828.23779297 C262.34644197 821.63911918 263.59745274 815.03782267 264.84130859 808.43505859 C267.01128425 796.91888287 269.20866416 785.40799121 271.40719223 773.89723778 C277.22570759 743.42718531 283.00219266 712.9491871 288.7744962 682.47035617 C290.17845462 675.05739418 291.5830125 667.6445458 292.98760533 660.231704 C297.63565914 635.70117223 302.28315455 611.17053485 306.92675781 586.63916016 C307.18716659 585.2635071 307.44757594 583.88785415 307.70798588 582.51220131 C308.91300335 576.14644365 310.11787772 569.78065894 311.32249451 563.41482544 C311.53916306 562.27042307 311.75583162 561.1260207 311.9790659 559.94693947 C312.39721179 557.73712802 312.81479383 555.5272098 313.23175716 553.31717491 C314.19963226 548.19305535 315.17854081 543.07160169 316.18399048 537.95471191 C316.36998967 537.00102345 316.55598886 536.04733498 316.7476244 535.06474686 C317.0914103 533.30523489 317.43892826 531.54644549 317.79121685 529.78861618 C319.60875362 520.45295101 320.95383003 510.62692967 316.3203125 501.89453125 C308.85634283 491.18439726 296.24993491 489.14734384 284.21484375 486.9609375 C282.72187385 486.68112596 281.22909123 486.40031362 279.73648071 486.11859131 C276.51065423 485.51197352 273.28361763 484.91245475 270.05545044 484.31842041 C264.82580658 483.3560383 259.59918867 482.37784641 254.37280273 481.39794922 C246.83928511 479.98714557 239.30442466 478.58372883 231.76855469 477.18554688 C214.04086799 473.89605379 196.31899374 470.57545688 178.59701538 467.25537109 C174.55480042 466.49809427 170.51249762 465.74128891 166.47012329 464.98486328 C116.06831752 455.55219684 65.72640422 445.81476703 15.40234375 435.9765625 C14.56091953 435.81206667 13.71949532 435.64757084 12.85257339 435.47809029 C10.30796231 434.98060888 7.76335562 434.48310503 5.21875 433.9855957 C2.67955758 433.48915563 0.14036351 432.99272403 -2.39883423 432.49631119 C-4.09160694 432.16537277 -5.78437631 431.83441726 -7.47714233 431.50344467 C-58.3795699 421.55180641 -109.33415437 411.87395922 -160.2890625 402.1953125 C-161.36030743 401.99182253 -162.43155235 401.78833256 -163.53525925 401.57867622 C-173.92550228 399.6050101 -184.31579246 397.63159746 -194.70669365 395.66139889 C-219.40315352 390.97846431 -244.09415861 386.26720723 -268.78125 381.53515625 C-269.53828783 381.39006048 -270.29532566 381.24496471 -271.07530403 381.0954721 C-292.71880357 376.94685455 -314.35731882 372.7729572 -335.99226379 368.57996273 C-351.57014125 365.56114765 -367.15015811 362.55351792 -382.73149109 359.55259037 C-392.71522801 357.62928218 -402.69767717 355.69964342 -412.67773438 353.75732422 C-421.6100806 352.01894009 -430.54450987 350.29175809 -439.48156404 348.57773578 C-444.14565299 347.68282371 -448.80858544 346.78272679 -453.46897888 345.86874771 C-457.80113417 345.01927432 -462.13593832 344.18490507 -466.47312927 343.36154175 C-468.04419728 343.0606565 -469.61427504 342.75453741 -471.18313599 342.44234848 C-479.21572384 340.84714749 -487.00940113 339.74406525 -495.21398926 339.69772339 C-495.91129764 339.69237394 -496.60860602 339.6870245 -497.32704496 339.68151295 C-504.51459194 339.77983085 -509.77983277 341.68862978 -514.79296875 346.84375 Z " fill="#1D1D1B" transform="translate(759,29)"/>
<path d="M0 0 C28.44299407 0.97730667 28.44299407 0.97730667 37 10 C47.14371912 22.88384065 52.47733648 41.08338363 58.7590332 56.046875 C62.01025513 63.75482174 65.38725376 71.39621342 68.875 79 C69.31505371 79.9600293 69.75510742 80.92005859 70.20849609 81.90917969 C73.02274737 88.00012293 75.98698341 94.00523905 79 100 C83.02422288 80.98112193 86.78826996 61.91580904 90.49951172 42.83374023 C91.22198503 39.12190954 91.94681739 35.41054535 92.671875 31.69921875 C92.89164001 30.56506027 93.11140503 29.43090179 93.33782959 28.26237488 C93.54184387 27.21890396 93.74585815 26.17543304 93.95605469 25.1003418 C94.13416687 24.18455856 94.31227905 23.26877533 94.49578857 22.32524109 C95 20 95 20 96 17 C100.29189252 17.79044537 104.5834715 18.58258084 108.875 19.375 C110.07898438 19.59671875 111.28296875 19.8184375 112.5234375 20.046875 C119.36060531 21.3102647 126.18649814 22.61471514 133 24 C132.31734409 31.04898762 131.16115683 37.92331317 129.82275391 44.87524414 C129.60309464 46.03103973 129.38343536 47.18683533 129.15711975 48.37765503 C128.43350851 52.1807811 127.70505253 55.98296197 126.9765625 59.78515625 C126.46881766 62.44668063 125.96212577 65.10840516 125.45541382 67.77012634 C124.25761532 74.05887387 123.05636148 80.34695603 121.85380685 86.63479561 C120.36317027 94.42980387 118.87684692 102.22563341 117.390625 110.02148438 C115.86863869 118.00447367 114.34626612 125.98738728 112.82095337 133.96974182 C112.58868231 135.18569251 112.35641125 136.4016432 112.11710167 137.65444088 C111.67122047 139.98808564 111.22501638 142.32166873 110.77845192 144.65518284 C109.85215143 149.50196416 108.93114454 154.34933902 108.04071045 159.20285034 C107.90117132 159.96114104 107.76163219 160.71943174 107.61786461 161.50070095 C107.2650729 163.4262978 106.91630865 165.35263142 106.56796265 167.27903748 C106 170 106 170 105 172 C74.91198963 169.66664409 74.91198963 169.66664409 66 160 C60.39445205 150.70548397 56.52709541 140.31476091 52.48880005 130.27059937 C50.77530555 126.01095178 49.04216578 121.75932075 47.30859375 117.5078125 C46.95546616 116.64119492 46.60233856 115.77457733 46.23851013 114.88169861 C42.44862048 105.60659101 38.52073861 96.39178522 34.5625 87.1875 C34.23572266 86.42676178 33.90894531 85.66602356 33.57226562 84.88223267 C30.42801034 77.37539252 30.42801034 77.37539252 27 70 C25.36821002 74.55199833 24.28750634 79.09947399 23.39599609 83.84130859 C23.17610268 84.98379059 23.17610268 84.98379059 22.95176697 86.14935303 C22.47178176 88.64832311 21.99757421 91.14835178 21.5234375 93.6484375 C21.19034914 95.3887097 20.85689864 97.12891262 20.52310181 98.86904907 C19.64819971 103.43528922 18.7782039 108.0024507 17.90924072 112.56982422 C17.02059109 117.2359201 16.1272849 121.9011241 15.234375 126.56640625 C13.48503538 135.71007261 11.74087981 144.85471948 10 154 C4.02114286 153.51236704 -1.86970414 152.97503319 -7.76171875 151.80859375 C-8.89931641 151.58623047 -10.03691406 151.36386719 -11.20898438 151.13476562 C-12.35689453 150.90466797 -13.50480469 150.67457031 -14.6875 150.4375 C-15.87794922 150.20353516 -17.06839844 149.96957031 -18.29492188 149.72851562 C-21.1976331 149.15729936 -24.09924374 148.58104763 -27 148 C-28.07307752 144.78076745 -27.93966972 143.65626061 -27.31869507 140.41038513 C-27.14218414 139.46779343 -26.96567322 138.52520172 -26.78381348 137.55404663 C-26.58235718 136.52099396 -26.38090088 135.48794128 -26.17333984 134.42358398 C-25.96693878 133.33349533 -25.76053772 132.24340668 -25.54788208 131.12028503 C-24.85942112 127.49414471 -24.16020169 123.87016498 -23.4609375 120.24609375 C-22.97758745 117.71204372 -22.494901 115.17786702 -22.0128479 112.64356995 C-20.86626221 106.62451347 -19.71290592 100.60679028 -18.55631125 94.58965021 C-17.26082151 87.84791511 -15.9739135 81.10455219 -14.68778682 74.36102569 C-12.23537234 61.5038602 -9.77498849 48.64823583 -7.30389404 35.79464722 C-6.39436811 31.06185413 -5.49107587 26.32791519 -4.59112549 21.59329224 C-4.36258692 20.394759 -4.13404835 19.19622576 -3.89858437 17.96137333 C-3.46209332 15.67200327 -3.02716083 13.38233533 -2.59401512 11.09232998 C-2.39924898 10.07279263 -2.20448284 9.05325529 -2.0038147 8.00282288 C-1.83354074 7.10627015 -1.66326679 6.20971743 -1.48783302 5.28599644 C-1 3 -1 3 0 0 Z " fill="#E94E1B" transform="translate(787,676)"/>
<path d="M0 0 C20.36227957 -0.55922254 40.98533055 5.77905373 56.60546875 18.99609375 C71.81848694 33.5329778 79.66984156 51.4195628 80.20117188 72.35058594 C80.37084718 93.82582411 76.43736032 112.65576949 61.73046875 129.12109375 C61.1375 129.79527344 60.54453125 130.46945312 59.93359375 131.1640625 C51.22905532 140.46209219 40.77367387 146.25845601 28.73046875 150.12109375 C27.7765625 150.42917969 26.82265625 150.73726562 25.83984375 151.0546875 C4.24935749 157.21918426 -18.06150064 153.87280359 -37.95703125 143.99609375 C-54.67665356 134.52711846 -66.85826411 118.8899515 -72.3359375 100.55078125 C-73.08862296 97.41640991 -73.72558182 94.29775845 -74.26953125 91.12109375 C-74.39972656 90.40695312 -74.52992188 89.6928125 -74.6640625 88.95703125 C-77.74380178 69.00032068 -72.8078423 47.31318542 -61.33203125 30.83984375 C-48.03744674 13.31516416 -29.96216133 4.36005168 -8.609375 0.66015625 C-5.73989637 0.28565639 -2.88765713 0.15407465 0 0 Z M-23.26953125 44.12109375 C-23.26953125 44.78109375 -23.26953125 45.44109375 -23.26953125 46.12109375 C-23.92953125 46.12109375 -24.58953125 46.12109375 -25.26953125 46.12109375 C-35.16943759 57.83126868 -37.07494066 71.26576458 -36.26953125 86.12109375 C-34.72786295 97.2524615 -30.07134035 105.47235386 -21.41796875 112.6171875 C-11.95405885 119.24192443 -0.81374583 120.56968185 10.44921875 118.66015625 C20.80996123 115.87324767 29.7388569 110.09519683 35.73046875 101.12109375 C42.24303178 87.60995553 43.83104775 73.33927368 39.7109375 58.8125 C36.04695743 48.75480171 28.77333914 42.44992809 19.73046875 37.12109375 C4.95164192 30.51778814 -10.51201002 35.6160796 -23.26953125 44.12109375 Z " fill="#E94E1B" transform="translate(676.26953125,653.87890625)"/>
<path d="M0 0 C14.96338672 13.32106378 24.14997926 32.01539251 25.78564453 51.97265625 C27.09452154 76.09866504 21.51062368 97.61844442 5.5625 116.25 C-7.36242214 130.17879959 -26.1433321 137.68525624 -44.89453125 138.47265625 C-67.53359458 139.06502433 -88.43948171 133.21717764 -105.1953125 117.453125 C-105.93523437 116.72609375 -106.67515625 115.9990625 -107.4375 115.25 C-108.26894531 114.43789063 -108.26894531 114.43789063 -109.1171875 113.609375 C-124.81072839 96.81304475 -128.31743669 74.20024889 -127.60791016 52.14550781 C-126.63821425 35.66901284 -119.49170886 19.46133095 -108.4375 7.25 C-107.86902344 6.59 -107.30054688 5.93 -106.71484375 5.25 C-97.43963834 -4.83260121 -85.484791 -11.0444448 -72.4375 -14.75 C-71.58414063 -14.99492188 -70.73078125 -15.23984375 -69.8515625 -15.4921875 C-45.60553624 -21.07565727 -19.43386334 -15.28174841 0 0 Z M-79.6875 31.5625 C-89.97726419 43.74880896 -90.67775708 57.89561737 -89.4375 73.25 C-87.48324142 83.28778269 -81.67967597 91.3156333 -73.4375 97.25 C-63.96299144 102.91496657 -54.08972079 104.7896637 -43.1953125 102.59765625 C-32.22078447 99.58934445 -24.13356104 94.57220765 -17.90625 84.9375 C-11.34060255 72.92376212 -9.32899307 58.87150218 -12.5625 45.5 C-15.98711143 34.71881586 -21.82578878 27.25102769 -31.875 21.96875 C-48.63967517 14.24817591 -67.1352856 18.10874534 -79.6875 31.5625 Z " fill="#E94E1B" transform="translate(565.4375,638.75)"/>
<path d="M0 0 C24.82374209 1.88249473 24.82374209 1.88249473 34 8 C36.88191735 11.91653424 37.88190843 15.94611855 38.80932617 20.63598633 C38.96582138 21.38774139 39.12231659 22.13949646 39.28355408 22.91403198 C39.79563196 25.3849512 40.29435922 27.85836231 40.79296875 30.33203125 C41.14658324 32.05141331 41.50103139 33.77062411 41.85627747 35.4896698 C42.78684386 40.00397033 43.70609344 44.52050285 44.62298584 49.03759766 C45.56147963 53.65081872 46.51068485 58.26183343 47.45898438 62.87304688 C49.31646494 71.91324027 51.16199449 80.95582846 53 90 C55.96211622 87.10786538 58.25135371 84.31271592 60.46875 80.80859375 C61.11626221 79.79079834 61.76377441 78.77300293 62.4309082 77.72436523 C63.1137085 76.63969971 63.79650879 75.55503418 64.5 74.4375 C65.21720972 73.30706688 65.93490695 72.17694292 66.65307617 71.04711914 C69.89685891 65.93821946 73.11826192 60.81533079 76.33203125 55.6875 C81.10201171 48.07913971 85.90931076 40.503674 90.9375 33.0625 C91.59262573 32.07721313 91.59262573 32.07721313 92.26098633 31.07202148 C95.20331578 26.77509733 98.24819352 23.37590324 103 21 C113.68338253 19.94206764 123.74722981 22.21294784 134 25 C134.33 25.33 134.66 25.66 135 26 C134.81693722 33.32929835 133.47444614 40.55723316 132.06640625 47.73217773 C131.8727951 48.74173019 131.67918396 49.75128265 131.47970581 50.79142761 C130.84579266 54.08983395 130.20426176 57.38670633 129.5625 60.68359375 C129.11748075 62.98991062 128.67290777 65.29631365 128.22875977 67.60279846 C127.30060048 72.41706519 126.36900741 77.23064906 125.43457031 82.04370117 C124.23634074 88.21549228 123.04375659 94.38835595 121.85334778 100.56165981 C120.71644207 106.45680182 119.57723437 112.35149805 118.4375 118.24609375 C118.11158371 119.93247357 118.11158371 119.93247357 117.77908325 121.65292168 C117.16516549 124.82671875 116.54966722 128.00020474 115.93359375 131.17358398 C115.7517453 132.11439819 115.56989685 133.0552124 115.38253784 134.02453613 C115.13021896 135.32154701 115.13021896 135.32154701 114.87280273 136.64476013 C114.72753647 137.39371772 114.5822702 138.1426753 114.43260193 138.91432858 C114.00850048 140.95901727 113.52127037 142.97811205 113 145 C106.00634512 144.43617776 99.23899157 143.37639601 92.375 141.9375 C91.46621094 141.75123047 90.55742188 141.56496094 89.62109375 141.37304688 C87.41309598 140.91982628 85.20633601 140.46121889 83 140 C83.56185333 132.32663848 84.6262797 124.86708366 86.06640625 117.3125 C86.26475571 116.24757324 86.46310516 115.18264648 86.66746521 114.08544922 C87.29437984 110.72272046 87.92794287 107.36129424 88.5625 104 C89.19977893 100.60999339 89.83557923 97.21972782 90.46824646 93.82885742 C90.86043526 91.72821973 91.25540803 89.62809947 91.65345764 87.52856445 C91.83041672 86.58327881 92.00737579 85.63799316 92.18969727 84.6640625 C92.42499901 83.41810303 92.42499901 83.41810303 92.66505432 82.14697266 C93.07707191 79.86813291 93.07707191 79.86813291 93 77 C91.2379256 79.89602149 89.47649577 82.79243266 87.71606445 85.68945312 C86.18660335 88.2062721 84.6548645 90.72168675 83.12182617 93.23632812 C79.274268 99.55525261 75.46207001 105.89012583 71.7421875 112.28515625 C71.07904541 113.41703369 70.41590332 114.54891113 69.73266602 115.71508789 C68.47725803 117.86276931 67.232474 120.0167055 65.99975586 122.17749023 C62.90816971 127.44413614 60.57238855 131.29633052 55 134 C48.41486817 135.05362109 41.97728342 132.66237078 36 130 C29.73438464 124.48029123 29.58110969 115.51247713 28.6875 107.6875 C27.58041816 98.64423352 26.14099495 89.70006868 24.4375 80.75 C24.12268677 79.063302 24.12268677 79.063302 23.80151367 77.3425293 C23.5976001 76.29621338 23.39368652 75.24989746 23.18359375 74.171875 C23.00368896 73.2447168 22.82378418 72.31755859 22.63842773 71.36230469 C22.06945096 68.75923209 22.06945096 68.75923209 20 66 C19.86441177 66.69491043 19.72882355 67.38982086 19.58912659 68.10578918 C18.31111367 74.65392881 17.03119924 81.20169353 15.74914646 87.74904346 C15.09009544 91.11512482 14.4317811 94.48134676 13.77514648 97.84790039 C13.02025568 101.71804021 12.26216753 105.58755032 11.50390625 109.45703125 C11.26845596 110.66647903 11.03300568 111.87592682 10.79042053 113.12202454 C10.57026779 114.24296005 10.35011505 115.36389557 10.12329102 116.51879883 C9.93009781 117.50697098 9.7369046 118.49514313 9.53785706 119.51325989 C9 122 9 122 8 125 C1.22135711 124.33951685 -5.38230956 123.25308378 -12.0625 121.9375 C-13.02349609 121.75123047 -13.98449219 121.56496094 -14.97460938 121.37304688 C-17.31704705 120.91854404 -19.65867448 120.46018606 -22 120 C-21.4289061 113.34352319 -20.53192154 106.83551555 -19.28173828 100.27441406 C-19.11084686 99.35909912 -18.93995544 98.44378418 -18.7638855 97.50073242 C-18.20346046 94.50491108 -17.63700899 91.51026579 -17.0703125 88.515625 C-16.67504605 86.4111722 -16.2801033 84.30665857 -15.88546753 82.2020874 C-15.05921999 77.80057222 -14.23017992 73.39959579 -13.39892578 68.99902344 C-12.34026026 63.39420426 -11.28683256 57.78841754 -10.23530769 52.18225479 C-9.42004471 47.83734039 -8.60283326 43.49279433 -7.78496933 39.14836884 C-7.39630175 37.08344579 -7.00802001 35.01845007 -6.62015152 32.95337677 C-4.54919508 21.93706075 -2.43279445 10.94327008 0 0 Z " fill="#E94E1B" transform="translate(562,485)"/>
<path d="M0 0 C8.35662927 8.73578668 13.31114238 18.60609669 13.27734375 30.875 C13.28121094 32.28652344 13.28121094 32.28652344 13.28515625 33.7265625 C13.15234375 36.25 13.15234375 36.25 12.15234375 39.25 C-20.34556312 35.62014181 -20.34556312 35.62014181 -25.84765625 29.25 C-27.82372356 26.46899618 -29.77109016 23.69647395 -31.56591797 20.79541016 C-33.89456762 17.13731711 -35.58797485 15.27959124 -39.84765625 14.25 C-45.73507636 14.43690223 -49.21501902 15.37151302 -53.84765625 19.25 C-56.39031419 22.28478528 -56.84765625 23.70360417 -56.84765625 27.6875 C-55.28567083 33.25207305 -52.14236057 36.68794959 -47.24609375 39.55859375 C-45.91096956 40.27949455 -44.56952677 40.98879092 -43.22265625 41.6875 C-41.78656592 42.46524633 -40.35167196 43.24520571 -38.91796875 44.02734375 C-38.2209082 44.40487793 -37.52384766 44.78241211 -36.80566406 45.17138672 C-20.29248019 54.26805085 -3.58437074 65.64745402 3.52734375 83.75 C5.62493447 95.49650802 2.74970627 106.8619182 -3.53515625 117 C-4.29828125 118.0725 -5.06140625 119.145 -5.84765625 120.25 C-6.50765625 121.24 -7.16765625 122.23 -7.84765625 123.25 C-8.50765625 123.25 -9.16765625 123.25 -9.84765625 123.25 C-9.84765625 123.91 -9.84765625 124.57 -9.84765625 125.25 C-24.28218494 137.19346346 -40.87669129 138.46074226 -58.84765625 137.25 C-74.37317054 135.38533427 -90.64192284 127.0716412 -100.84765625 115.25 C-107.16109168 106.29452909 -110.2160409 98.23672644 -109.97265625 87.3125 C-109.96363281 86.53326172 -109.95460938 85.75402344 -109.9453125 84.95117188 C-109.92199316 83.05064553 -109.88613211 81.15027992 -109.84765625 79.25 C-102.12573973 79.60488998 -94.53467358 80.30757724 -86.91015625 81.5625 C-86.21349854 81.66796143 -85.51684082 81.77342285 -84.79907227 81.88208008 C-79.76283361 82.76090704 -76.09359644 84.37130596 -71.84765625 87.25 C-70.09765625 90.625 -70.09765625 90.625 -68.84765625 94.25 C-66.7424031 99.36275766 -64.97405939 101.95195721 -59.84765625 104.25 C-54.25716396 104.94703339 -48.09872628 105.59574602 -43.16015625 102.4375 C-40.22502618 99.66102561 -38.94089875 98.05810163 -38.47265625 94 C-39.06221087 88.10445379 -41.34648957 84.48846251 -45.81640625 80.80078125 C-46.98280155 80.03808665 -48.16068533 79.29276098 -49.34765625 78.5625 C-50.30986084 77.94411255 -50.30986084 77.94411255 -51.29150391 77.31323242 C-57.66264122 73.25948891 -64.17154776 69.40957712 -70.70507812 65.62426758 C-76.38261318 62.29382184 -82.01903161 58.75830707 -86.84765625 54.25 C-86.84765625 53.59 -86.84765625 52.93 -86.84765625 52.25 C-87.50765625 52.25 -88.16765625 52.25 -88.84765625 52.25 C-96.17966684 43.78726971 -99.45889267 35.51062289 -99.1328125 24.3671875 C-97.98240458 11.79149546 -93.16839669 0.87761297 -83.84765625 -7.75 C-59.34397167 -26.46269034 -21.35957836 -20.49411732 0 0 Z " fill="#E94E1B" transform="translate(415.84765625,611.75)"/>
<path d="M0 0 C13.02371912 1.42622861 24.30976038 3.43292097 33 14 C38.68826596 23.13144783 42.19401626 33.07313307 45.70581055 43.19140625 C49.8612798 54.88364715 55.45153122 65.91884435 61 77 C61.38236816 77.76489746 61.76473633 78.52979492 62.15869141 79.31787109 C62.57513916 80.1505249 62.57513916 80.1505249 63 81 C65.09932713 74.32071227 66.31699293 67.50416502 67.6015625 60.62890625 C67.8428891 59.35144028 68.0842157 58.0739743 68.33285522 56.75779724 C68.97029116 53.38332004 69.60382319 50.00812162 70.23651123 46.63275146 C70.88445858 43.17984869 71.53614206 39.72765134 72.1875 36.27539062 C73.46196554 29.51760814 74.73230318 22.75905542 76 16 C79.72392239 14.75869254 81.60065326 15.36847063 85.41796875 16.21484375 C87.29838867 16.62573242 87.29838867 16.62573242 89.21679688 17.04492188 C90.54040265 17.34227854 91.86396988 17.63980679 93.1875 17.9375 C94.52262793 18.2318398 95.85791292 18.52546815 97.19335938 18.81835938 C100.46386025 19.53857798 103.73225885 20.26739421 107 21 C105.41475253 33.47721053 103.04271587 45.78781696 100.68359375 58.13671875 C100.26264449 60.35150569 99.84191771 62.56633493 99.42140198 64.78120422 C98.54506295 69.39317559 97.66655681 74.00472694 96.78637695 78.6159668 C95.6573977 84.5312325 94.53314344 90.44738435 93.41038418 96.36383343 C92.54468147 100.92363077 91.67690841 105.48303209 90.80845833 110.0423069 C90.39285413 112.22514202 89.97780606 114.4080831 89.56332207 116.59113121 C88.98624044 119.62845078 88.4064701 122.66524458 87.82592773 125.7019043 C87.65500107 126.60419769 87.4840744 127.50649109 87.30796814 128.43612671 C87.14961487 129.26143387 86.9912616 130.08674103 86.82810974 130.9370575 C86.69151664 131.65354304 86.55492353 132.37002859 86.41419125 133.10822582 C86 135 86 135 85 138 C79.44235903 140.77882049 68.27401936 139.79006804 62.5 138.0625 C54.11619292 133.84606769 49.54096902 125.02676942 46.0625 116.75 C45.64411865 115.79472412 45.2257373 114.83944824 44.79467773 113.85522461 C43.51070436 110.91126228 42.25167314 107.95782284 41 105 C34.68099659 90.13254957 27.98285271 75.6005102 21 61 C16.71 82.45 12.42 103.9 8 126 C-8.10472973 123.69932432 -8.10472973 123.69932432 -14.875 122.375 C-15.57496094 122.2409375 -16.27492188 122.106875 -16.99609375 121.96875 C-18.66462596 121.64875752 -20.3324078 121.32485562 -22 121 C-21.44945119 113.74174103 -20.52942343 106.66453469 -19.17407227 99.51489258 C-18.99182098 98.53127243 -18.8095697 97.54765228 -18.62179565 96.53422546 C-18.02492819 93.32005348 -17.42083372 90.10728939 -16.81640625 86.89453125 C-16.39626936 84.64262219 -15.97651141 82.39064241 -15.55711365 80.13859558 C-14.68012797 75.43531018 -13.79976541 70.73267422 -12.91674805 66.03051758 C-11.78741951 60.01616049 -10.66472706 54.00058904 -9.54432774 47.98456287 C-8.67898858 43.34041798 -7.81106595 38.69675901 -6.94227409 34.0532589 C-6.52746857 31.83548447 -6.1132427 29.61760155 -5.69961739 27.3996067 C-5.12066276 24.29824194 -4.53845753 21.19750488 -3.95532227 18.09692383 C-3.78641983 17.1891922 -3.6175174 16.28146057 -3.4434967 15.34622192 C-2.46712886 10.17676172 -1.32653728 5.09121259 0 0 Z " fill="#E94E1B" transform="translate(766,523)"/>
<path d="M0 0 C10.5949208 8.602942 17.05425844 21.41043334 19.33691406 34.78027344 C19.37630964 36.44647444 19.38739594 38.11437147 19.33691406 39.78027344 C5.17481399 39.11382167 -8.23700317 35.51452713 -19.03808594 26.21777344 C-27.54043804 19.13636237 -35.2227262 18.16507324 -46.17089844 18.44042969 C-52.91478976 19.09671441 -56.74091464 21.5626318 -61.41308594 26.34277344 C-65.21323644 30.9671575 -67.0179185 36.08410233 -68.66308594 41.78027344 C-68.95119141 42.71033203 -68.95119141 42.71033203 -69.24511719 43.65917969 C-71.41702234 54.68109086 -69.66887392 63.77159146 -63.53808594 72.96777344 C-57.89181456 79.22398154 -49.41300517 83.29745579 -41.10449219 83.99511719 C-33.53266511 84.2576632 -27.26048189 83.09859527 -20.85058594 78.96777344 C-18.34700569 76.46419319 -16.59015164 73.74157146 -14.66308594 70.78027344 C-15.65751709 70.58393311 -16.65194824 70.38759277 -17.67651367 70.18530273 C-21.35622372 69.45512124 -25.03219226 68.70743962 -28.70727539 67.9543457 C-30.30005508 67.63052545 -31.89381632 67.31149545 -33.48852539 66.99731445 C-35.77731344 66.54553316 -38.06204781 66.07678341 -40.34667969 65.60449219 C-41.06335312 65.46685959 -41.78002655 65.32922699 -42.51841736 65.18742371 C-44.52026367 64.76342773 -44.52026367 64.76342773 -47.66308594 63.78027344 C-48.74931349 60.52159079 -48.57431262 59.3882307 -47.88574219 56.11230469 C-47.70205078 55.21962891 -47.51835938 54.32695313 -47.32910156 53.40722656 C-47.12994141 52.47845703 -46.93078125 51.5496875 -46.72558594 50.59277344 C-46.53029297 49.65240234 -46.335 48.71203125 -46.13378906 47.74316406 C-45.65042555 45.42066132 -45.15863835 43.10019608 -44.66308594 40.78027344 C-37.42955545 41.47857858 -30.36324729 42.67673986 -23.22558594 44.03027344 C-22.06430176 44.24844727 -20.90301758 44.46662109 -19.70654297 44.69140625 C-17.26905263 45.15034382 -14.8318823 45.61098394 -12.39501953 46.07324219 C-8.64813767 46.78310545 -4.89984144 47.48512332 -1.15136719 48.18652344 C1.21981519 48.63397069 3.59091211 49.08187109 5.96191406 49.53027344 C7.08782959 49.74071289 8.21374512 49.95115234 9.3737793 50.16796875 C10.40575439 50.36487305 11.43772949 50.56177734 12.50097656 50.76464844 C13.41314941 50.93706055 14.32532227 51.10947266 15.26513672 51.28710938 C17.33691406 51.78027344 17.33691406 51.78027344 18.33691406 52.78027344 C18.62532936 67.81907114 14.85238037 80.93213214 5.33691406 92.78027344 C4.73878906 93.66714844 4.14066406 94.55402344 3.52441406 95.46777344 C-6.04809421 105.58728219 -20.35020621 111.40949657 -34.17089844 112.11621094 C-54.24404604 112.50790311 -71.61904885 106.89454688 -86.52636719 93.04980469 C-99.32787856 79.73736825 -102.10948329 62.47932738 -101.87402344 44.80371094 C-101.38619251 28.70529048 -94.99664153 15.99658535 -83.66308594 4.78027344 C-83.05980469 4.14347656 -82.45652344 3.50667969 -81.83496094 2.85058594 C-60.64268193 -17.88099135 -22.98464356 -16.85720482 0 0 Z " fill="#E94E1B" transform="translate(976.6630859375,568.2197265625)"/>
<path d="M0 0 C12.11375197 11.5641262 19.88478156 27.61753817 20.6484375 44.41796875 C20.97283758 63.05413279 17.38116614 78.14873856 4.25 92.1875 C-10.51897594 106.20791141 -28.54378846 111.00753831 -48.4921875 110.71484375 C-64.85758256 110.11260201 -78.39893098 103.04461771 -89.6875 91.4375 C-102.76474418 76.95598798 -105.68423025 59.66258327 -104.84277344 40.85498047 C-103.85907029 25.53952681 -96.27692976 11.13539547 -84.96484375 0.875 C-60.88374431 -18.75799827 -24.33401996 -20.03233879 0 0 Z M-64.0859375 23.46484375 C-72.22420555 33.48880805 -73.23714698 44.02111574 -72.6875 56.4375 C-71.65127032 64.53058499 -68.27886115 72.04794192 -61.796875 77.1171875 C-53.55571772 82.2755415 -45.18805909 83.74106497 -35.74609375 81.84765625 C-26.78067929 79.36298838 -20.22350299 74.66002977 -14.9921875 66.93359375 C-10.06040704 57.47866608 -9.40203518 45.86881859 -11.9609375 35.58203125 C-14.75456862 27.3363136 -20.27171282 21.82643527 -27.6875 17.4375 C-39.86240323 12.59185378 -54.3640796 14.45715077 -64.0859375 23.46484375 Z " fill="#E94E1B" transform="translate(517.6875,481.5625)"/>
<path d="M0 0 C1.12535156 0.47566406 2.25070312 0.95132812 3.41015625 1.44140625 C16.74902683 7.42856701 26.77724594 16.44311486 32.28125 30.203125 C34.56545837 37.08838167 35.70980741 43.75969482 36 51 C30.31589304 51.17782681 25.4303195 50.67781341 19.9375 49.25 C18.93493164 49.01410156 18.93493164 49.01410156 17.91210938 48.7734375 C11.13213362 47.06032409 5.68895717 44.45513948 1.4375 38.6875 C-4.24647057 31.99722335 -13.01828452 27.38730353 -21.6875 25.8125 C-28.19333102 25.5449705 -34.29468034 28.43692642 -39.8125 31.625 C-48.62985707 41.19813053 -51.90743766 52.20108862 -51.40625 64.984375 C-50.80701906 72.85677152 -47.94543439 79.61120117 -42.1875 85.0625 C-34.65618607 90.8126652 -27.40201497 91.98131045 -18 91 C-14.48334397 89.72121599 -12.36810084 88.30368319 -9.5 85.9375 C-4.49084063 82.05540149 0.8121024 81.33315842 7 82 C10.54027655 82.68548448 14.05083128 83.46336247 17.56640625 84.265625 C21.71568751 85.15307082 25.77627007 85.63588535 30 86 C26.35331558 97.97444931 18.68060356 107.38172741 7.97265625 113.8203125 C-7.43714993 121.86528067 -23.87132255 122.65554724 -40.60546875 117.99609375 C-57.10721835 112.54349819 -70.76697828 102.47808084 -79 87 C-86.88658126 70.95488641 -86.19358909 52.8409764 -81 36 C-75.13461633 21.17715539 -65.15166855 9.24343587 -50.6875 2.25 C-35.52501592 -4.06075917 -15.55500672 -6.65290242 0 0 Z " fill="#E94E1B" transform="translate(369,447)"/>
<path d="M0 0 C1.60524375 0.15388207 3.21030744 0.30964321 4.81529236 0.46620178 C5.709131 0.55274049 6.60296965 0.63927919 7.52389431 0.72844028 C11.974831 1.21658387 16.23259738 2.33164996 20.5625 3.4375 C21.46291016 3.65470703 22.36332031 3.87191406 23.29101562 4.09570312 C24.14501953 4.31033203 24.99902344 4.52496094 25.87890625 4.74609375 C26.6479126 4.93872803 27.41691895 5.1313623 28.20922852 5.32983398 C30 6 30 6 31 8 C30.78225899 10.05212402 30.78225899 10.05212402 30.29177856 12.63085938 C30.109487 13.60676025 29.92719543 14.58266113 29.73937988 15.58813477 C29.5316394 16.66248779 29.32389893 17.73684082 29.10986328 18.84375 C28.89703705 19.97224365 28.68421082 21.1007373 28.4649353 22.26342773 C27.75654926 26.01021469 27.0385782 29.75509546 26.3203125 33.5 C25.82753907 36.09300506 25.33526619 38.68610528 24.84347534 41.27929688 C23.81048135 46.72091923 22.772376 52.16154658 21.73095703 57.6015625 C20.52610832 63.89546558 19.3279564 70.19061324 18.13369954 76.48653412 C16.98603671 82.53659212 15.83486068 88.58597443 14.68181992 94.63500977 C14.19071627 97.21218788 13.70031175 99.78949932 13.21060562 102.36694336 C12.52642438 105.96396896 11.83828173 109.56021303 11.14892578 113.15625 C10.94523376 114.23060303 10.74154175 115.30495605 10.53167725 116.41186523 C10.34374603 117.38776611 10.15581482 118.36366699 9.96218872 119.36914062 C9.79957613 120.22012329 9.63696354 121.07110596 9.46942329 121.94787598 C9 124 9 124 8 126 C3.56185484 125.19099794 -0.87539813 124.37720308 -5.3125 123.5625 C-6.57513672 123.33240234 -7.83777344 123.10230469 -9.13867188 122.86523438 C-10.34716797 122.64287109 -11.55566406 122.42050781 -12.80078125 122.19140625 C-13.91622314 121.98717041 -15.03166504 121.78293457 -16.1809082 121.57250977 C-19 121 -19 121 -22 120 C-21.33124176 113.17758089 -20.24896842 106.51921719 -18.95874023 99.78881836 C-18.75376923 98.70485779 -18.54879822 97.62089722 -18.33761597 96.50408936 C-17.66449239 92.9487222 -16.98657814 89.39428689 -16.30859375 85.83984375 C-15.83890113 83.36411571 -15.36950955 80.88833055 -14.90040588 78.41249084 C-13.79442777 72.57930213 -12.68543203 66.7466924 -11.57494646 60.91436058 C-10.30985133 54.26908333 -9.04865307 47.62306837 -7.78776634 40.97699153 C-5.19615059 27.31717465 -2.59969209 13.65828194 0 0 Z " fill="#E94E1B" transform="translate(716,514)"/>
</svg>
