<?xml version="1.0" encoding="UTF-8"?>
<svg version="1.1" xmlns="http://www.w3.org/2000/svg" width="225" height="225" viewBox="0 0 225 225" fill="none" xmlns:xlink="http://www.w3.org/1999/xlink">
<path d="M0 0 C24.42 0 48.84 0 74 0 C74 7.92 74 15.84 74 24 C81.92 24 89.84 24 98 24 C98 32.25 98 40.5 98 49 C106.25 49 114.5 49 123 49 C123 73.09 123 97.18 123 122 C82.41 122 41.82 122 0 122 C0 81.74 0 41.48 0 0 Z " fill="#4C4C9A" transform="translate(40,62)"/>
<path d="M0 0 C8.25 0 16.5 0 25 0 C25 7.92 25 15.84 25 24 C32.92 24 40.84 24 49 24 C49 40.17 49 56.34 49 73 C41.08 73 33.16 73 25 73 C25 81.25 25 89.5 25 98 C8.83 98 -7.34 98 -24 98 C-24 89.75 -24 81.5 -24 73 C-16.08 73 -8.16 73 0 73 C0 65.08 0 57.16 0 49 C-7.92 49 -15.84 49 -24 49 C-24 40.75 -24 32.5 -24 24 C-16.08 24 -8.16 24 0 24 C0 16.08 0 8.16 0 0 Z " fill="#E2823F" transform="translate(89,62)"/>
<path d="M0 0 C8.25 0 16.5 0 25 0 C25 24.09 25 48.18 25 73 C0.58 73 -23.84 73 -49 73 C-49 65.08 -49 57.16 -49 49 C-40.75 49 -32.5 49 -24 49 C-24 40.75 -24 32.5 -24 24 C-16.08 24 -8.16 24 0 24 C0 16.08 0 8.16 0 0 Z " fill="#3AB7D3" transform="translate(138,111)"/>
<path d="M0 0 C16.17 0 32.34 0 49 0 C49 7.92 49 15.84 49 24 C41.08 24 33.16 24 25 24 C25 32.25 25 40.5 25 49 C8.83 49 -7.34 49 -24 49 C-24 40.75 -24 32.5 -24 24 C-16.08 24 -8.16 24 0 24 C0 16.08 0 8.16 0 0 Z " fill="#F7CE52" transform="translate(89,111)"/>
<path d="M0 0 C16.17 0 32.34 0 49 0 C49 15.84 49 31.68 49 48 C41.08 48 33.16 48 25 48 C25 40.08 25 32.16 25 24 C16.75 24 8.5 24 0 24 C0 16.08 0 8.16 0 0 Z " fill="#DB4658" transform="translate(141,32)"/>
<path d="M0 0 C8.25 0 16.5 0 25 0 C25 7.92 25 15.84 25 24 C16.75 24 8.5 24 0 24 C0 16.08 0 8.16 0 0 Z " fill="#915A9F" transform="translate(138,160)"/>
<path d="M0 0 C7.92 0 15.84 0 24 0 C24 8.25 24 16.5 24 25 C16.08 25 8.16 25 0 25 C0 16.75 0 8.5 0 0 Z " fill="#8FBD57" transform="translate(65,135)"/>
</svg>
