<?xml version="1.0" encoding="UTF-8"?>
<svg version="1.1" xmlns="http://www.w3.org/2000/svg" width="400" height="400" viewBox="50 50 300 300" fill="none" xmlns:xlink="http://www.w3.org/1999/xlink">
<path d="M0 0 C1.01320313 0.71671875 2.02640625 1.4334375 3.0703125 2.171875 C16.65012357 12.05353886 27.9262484 23.88202753 37 38 C37.64582031 38.99644531 38.29164063 39.99289063 38.95703125 41.01953125 C55.2656784 67.56105504 60.93113534 102.45442755 54.56567383 132.97387695 C53.55243218 137.04850241 52.35703485 141.02738992 51 145 C50.73767578 145.78745605 50.47535156 146.57491211 50.20507812 147.38623047 C44.78048125 163.31204037 36.77732834 177.10089768 26 190 C25.57348145 190.51304687 25.14696289 191.02609375 24.70751953 191.5546875 C4.27345503 215.79562514 -26.65245592 231.77270989 -58.16088867 234.78833008 C-73.44691031 235.9279793 -89.11487951 235.94272059 -104 232 C-104.70995117 231.81195801 -105.41990234 231.62391602 -106.15136719 231.43017578 C-138.22787612 222.54516659 -166.72453058 200.73436402 -183.40625 171.88671875 C-200.97258284 140.55325995 -205.99494301 105.94684006 -196.50927734 71.12963867 C-192.0863531 56.10642673 -185.00020123 41.07055539 -175 29 C-174.2575 28.05898437 -173.515 27.11796875 -172.75 26.1484375 C-151.46535686 -0.529274 -120.35185021 -17.72627395 -86.38134766 -21.77734375 C-56.34660594 -24.58559518 -24.74645145 -17.64529582 0 0 Z " fill="#4AC793" transform="translate(272,93)"/>
<path d="M0 0 C0.80981891 2.75456651 1.50092879 5.45323645 2.125 8.25 C2.30675781 9.01441406 2.48851562 9.77882813 2.67578125 10.56640625 C3.56636684 14.44346684 4.24037185 17.99380254 4 22 C2.47632813 22.52787109 2.47632813 22.52787109 0.921875 23.06640625 C-21.46033833 31.00504634 -38.76575109 44.09916569 -49.26464844 65.85229492 C-57.66516888 84.05130762 -59.3763406 105.74187103 -52.73828125 124.96875 C-44.68162607 144.9227672 -31.55665747 161.22167126 -12 171 C5.77590423 178.54953109 26.41354656 181.37618611 45 175 C46.03125 174.67128906 47.0625 174.34257812 48.125 174.00390625 C67.91992706 167.12802414 83.42192603 153.58526885 92.875 134.875 C95.50626826 129.35723653 97.54999664 123.93098149 99 118 C99.350625 116.80117187 99.70125 115.60234375 100.0625 114.3671875 C101.29558853 109.41286558 101.25673693 104.57980425 101.1875 99.5 C101.18685547 98.60152344 101.18621094 97.70304687 101.18554688 96.77734375 C101.15055197 91.4347875 100.77196221 86.2863972 100 81 C102.51840815 80.322781 105.03908724 79.65808826 107.5625 79 C108.61920898 78.71382812 108.61920898 78.71382812 109.69726562 78.421875 C114.27060209 77.24165914 118.27776365 76.80143027 123 77 C125.10634418 83.9064592 125.34891561 90.36729481 125.3125 97.5625 C125.30686035 98.72128662 125.3012207 99.88007324 125.29541016 101.07397461 C124.8867674 129.98039222 112.57937206 155.82987681 92 176 C79.34984973 187.10182458 65.18578915 194.48439258 49 199 C48.1325415 199.25966553 47.26508301 199.51933105 46.37133789 199.78686523 C38.45314713 202.00085682 31.01187418 202.50596396 22.8125 202.4375 C21.53745605 202.42992676 20.26241211 202.42235352 18.94873047 202.41455078 C9.09358656 202.24301543 0.32090151 201.15929504 -9 198 C-9.6403418 197.78569336 -10.28068359 197.57138672 -10.94042969 197.35058594 C-36.06863219 188.74057341 -58.11898435 170.22917428 -69.98071289 146.33349609 C-73.37950767 139.1276429 -76.00986858 131.7152962 -78 124 C-78.17660156 123.39389893 -78.35320312 122.78779785 -78.53515625 122.16333008 C-80.50465978 114.69592227 -80.39585917 107.10528503 -80.375 99.4375 C-80.37478851 98.72412476 -80.37457703 98.01074951 -80.37435913 97.27575684 C-80.34292972 86.67793813 -79.75346931 77.0174558 -76 67 C-75.63777344 65.97132813 -75.27554688 64.94265625 -74.90234375 63.8828125 C-64.5287428 36.80595577 -44.54483473 16.24362328 -18.42358398 4.25830078 C-4.0735069 -2.03675345 -4.0735069 -2.03675345 0 0 Z " fill="#202428" transform="translate(178,99)"/>
<path d="M0 0 C1.56621094 0.49306641 1.56621094 0.49306641 3.1640625 0.99609375 C21.34537953 7.26626156 34.99508897 20.21874084 44 37 C52.61949601 55.45536859 53.29554845 74.72652487 47 94 C42.84335748 105.2557705 36.5718006 113.73297454 28 122 C27.36707031 122.66386719 26.73414063 123.32773438 26.08203125 124.01171875 C12.99573438 136.86691104 -6.42459885 141.3125 -24.11791992 141.3125 C-42.57723106 141.01899212 -59.90355706 132.95669431 -73 120 C-81.60395995 110.64037155 -88.56613976 99.85640976 -90 87 C-87.27318889 86.15820605 -84.54398557 85.32636931 -81.8125 84.5 C-80.65911133 84.14228516 -80.65911133 84.14228516 -79.48242188 83.77734375 C-75.55643872 82.59786383 -72.14951179 81.6673738 -68 82 C-67.39865234 83.34191406 -67.39865234 83.34191406 -66.78515625 84.7109375 C-59.99320889 99.35975755 -50.65834932 109.5715357 -35.26171875 115.25390625 C-22.91669286 119.3262723 -9.75015361 117.08501646 1.828125 111.6796875 C13.55122633 105.09892816 21.65806383 94.90086096 25.4765625 82.0078125 C29.2406246 67.56954445 26.13627714 54.25113511 18.67578125 41.49609375 C11.79887521 31.25287007 0.99919329 24.68771739 -11 22 C-14.10999402 21.71203112 -17.19053142 21.666332 -20.3125 21.6875 C-21.15337158 21.69168945 -21.99424316 21.69587891 -22.8605957 21.70019531 C-30.96149041 21.84761262 -37.26137724 23.53287166 -44.4375 27.25 C-48 29 -48 29 -51 28 C-52.3503418 26.41772461 -52.3503418 26.41772461 -53.69921875 24.40234375 C-54.18583984 23.68369141 -54.67246094 22.96503906 -55.17382812 22.22460938 C-55.9230957 21.09249023 -55.9230957 21.09249023 -56.6875 19.9375 C-57.19861328 19.17888672 -57.70972656 18.42027344 -58.23632812 17.63867188 C-59.49806185 15.76375915 -60.75220179 13.8842038 -62 12 C-59.1803742 5.5958235 -52.19273276 3.48876621 -46 1 C-31.16937627 -4.41643426 -15.00708891 -5.07774104 0 0 Z " fill="#202428" transform="translate(221,129)"/>
<path d="M0 0 C1.30066406 -0.00257813 2.60132813 -0.00515625 3.94140625 -0.0078125 C6.67981935 0.0962166 8.85382549 0.29664634 11.4375 1.125 C10.23379368 8.57014649 7.66653115 16.82762174 3.4375 23.125 C0.0836799 25.03995722 -2.77524871 24.98728177 -6.5625 25.125 C-11.56285579 27.62517789 -14.68354408 30.8326075 -16.5625 36.125 C-17.46103194 40.36204285 -17.49962475 43.67283349 -15.10546875 47.3828125 C-14.53441406 48.12273437 -13.96335938 48.86265625 -13.375 49.625 C-10.54527771 53.50499747 -10.54527771 53.50499747 -10.62109375 56.234375 C-11.40714897 58.66803749 -12.41659781 60.83669992 -13.5625 63.125 C-14.33400391 64.83623047 -14.33400391 64.83623047 -15.12109375 66.58203125 C-16.56637386 69.78105652 -18.0497229 72.95746995 -19.5625 76.125 C-29.93879533 71.15302516 -35.66268334 62.7532557 -39.5625 52.125 C-42.64392545 42.681922 -41.26989789 31.49665631 -37.046875 22.7421875 C-31.18598072 12.40850548 -23.63311726 5.59240343 -12.5625 1.125 C-8.37107735 -0.00535016 -4.32790363 -0.00859564 0 0 Z " fill="#202428" transform="translate(200.5625,157.875)"/>
</svg>
